{"title":"In Time (Justin Timberlake) Special Music Video 2012 - HD720p","uid":6983125,"size":707909864,"categoryP":"video","categoryS":"music_videos","magnet":"?xt=urn:btih:8f4f71ff5f43111594a8070ccd816ef60613f695&amp;dn=In+Time+%28Justin+Timberlake%29+Special+Music+Video+2012+-+HD720p&amp;tr=udp%3A%2F%2Ftracker.openbittorrent.com%3A80&amp;tr=udp%3A%2F%2Fopen.demonii.com%3A1337&amp;tr=udp%3A%2F%2Ftracker.coppersurfer.tk%3A6969&amp;tr=udp%3A%2F%2Fexodus.desync.com%3A6969","seeders":1,"leechers":0,"uploader":"Uzzzu","files":-1,"time":1327478567,"description":"Format                           : MPEG-TS\nFormat_Commercial_IfAny          : HDV 720p\nFile size                        : 675 MiB\nDuration                         : 4mn 47s\nOverall bit rate                 : 19.7 Mbps\nMaximum Overall bit rate         : 19.7 Mbps\n\nVideo\nID                               : 4096 (0x1000)\nMenu ID                          : 1 (0x1)\nFormat                           : MPEG Video\nFormat_Commercial_IfAny          : HDV 720p\nFormat version                   : Version 2\nFormat profile                   : Main@High 1440\nFormat settings, BVOP            : Yes\nFormat settings, Matrix          : Default\nFormat settings, GOP             : M=3, N=6\nCodec ID                         : 2\nDuration                         : 4mn 47s\nBit rate mode                    : Constant\nBit rate                         : 18.3 Mbps\nWidth                            : 1 280 pixels\nHeight                           : 720 pixels\nDisplay aspect ratio             : 16:9\nFrame rate                       : 25.000 fps\nColor space                      : YUV\nChroma subsampling               : 4:2:0\nBit depth                        : 8 bits\nScan type                        : Progressive\nCompression mode                 : Lossy\nBits/(Pixel*Frame)               : 0.794\nStream size                      : 628 MiB (93%)\n\nAudio\nID                               : 4098 (0x1002)\nMenu ID                          : 1 (0x1)\nFormat                           : MPEG Audio\nFormat version                   : Version 1\nFormat profile                   : Layer 2\nCodec ID                         : 3\nDuration                         : 4mn 47s\nBit rate mode                    : Constant\nBit rate                         : 384 Kbps\nChannel(s)                       : 2 channels\nSampling rate                    : 48.0 KHz\nCompression mode                 : Lossy\nStream size                      : 13.2 MiB (2%)\n\nMenu\nID                               : 110 (0x6E)\nMenu ID                          : 1 (0x1)\nList                             : 4096 (0x1000) (MPEG Video) / 4098 (0x1002) (MPEG Audio)\nMaximum bit rate                 : 19700000\n\n","torrent":{"xt":"urn:btih:8f4f71ff5f43111594a8070ccd816ef60613f695","amp;dn":"In+Time+%28Justin+Timberlake%29+Special+Music+Video+2012+-+HD720p","amp;tr":["udp%3A%2F%2Ftracker.openbittorrent.com%3A80","udp%3A%2F%2Fopen.demonii.com%3A1337","udp%3A%2F%2Ftracker.coppersurfer.tk%3A6969","udp%3A%2F%2Fexodus.desync.com%3A6969"],"infoHash":"8f4f71ff5f43111594a8070ccd816ef60613f695","infoHashBuffer":{"type":"Buffer","data":[143,79,113,255,95,67,17,21,148,168,7,12,205,129,110,246,6,19,246,149]},"announce":[],"urlList":[]}}